# xmcd
#
# Track frame offsets: 
#        150
#        29630
#        55555
#        92386
#        104817
#        134693
#        160033
#        192765
#        216621
#        238308
#        255704
#        279443
#
# Disc length: 4200 seconds
#
# Revision: 1
# Processed by: cddbd v1.5.2PL0 Copyright (c) Steve Scherf et al.
# Submitted via: ExactAudioCopy v0.95b4
#
DISCID=b310660c
DTITLE=Louis L'Amour - High-Lonesome1
DYEAR=1962
DGENRE=Booty Bass
TTITLE0=Chapter 06 (1 of 4)
TTITLE1=Chapter 06 (2 of 4)
TTITLE2=Chapter 06 (3 of 4)
TTITLE3=Chapter 06 (4 of 4)
TTITLE4=Chapter 07 (1 of 3)
TTITLE5=Chapter 07 (2 of 3)
TTITLE6=Chapter 07 (3 of 3)
TTITLE7=Chapter 08 (1 of 4)
TTITLE8=Chapter 08 (2 of 4)
TTITLE9=Chapter 08 (3 of 4)
TTITLE10=Chapter 08 (4 of 4)
TTITLE11=Chapter 09 (1 of ?)
EXTD=by Louis L'Amour read by David Strathairn\nRandom House Inc - boot
EXTD=y bass =western
EXTT0=
EXTT1=
EXTT2=
EXTT3=
EXTT4=
EXTT5=
EXTT6=
EXTT7=
EXTT8=
EXTT9=
EXTT10=
EXTT11=
PLAYORDER=
